HIERARCHY
ROOT joint_0
{
	OFFSET 0.000000 0.000000 0.000000
	CHANNELS 6 Xposition Yposition Zposition Zrotation Yrotation Xrotation 
	JOINT joint_1
	{
		OFFSET 17.107422 0.519409 105.452026
		CHANNELS 3 Zrotation Yrotation Xrotation
		JOINT joint_2
		{
			OFFSET 6.110352 -1.434082 97.381958
			CHANNELS 3 Zrotation Yrotation Xrotation
			JOINT joint_3
			{
				OFFSET 6.305908 -1.739990 97.255005
				CHANNELS 3 Zrotation Yrotation Xrotation
				JOINT joint_4
				{
					OFFSET 22.074707 -0.492493 131.077026
					CHANNELS 3 Zrotation Yrotation Xrotation
					JOINT joint_5
					{
						OFFSET 34.162842 2.248718 78.700928
						CHANNELS 3 Zrotation Yrotation Xrotation
						End Site
						{
							OFFSET 0.000000 0.000000 0.000000
						}
					}
				}
				JOINT joint_6
				{
					OFFSET 17.059082 -28.836914 72.664062
					CHANNELS 3 Zrotation Yrotation Xrotation
					JOINT joint_7
					{
						OFFSET 22.639893 -134.803833 -24.691040
						CHANNELS 3 Zrotation Yrotation Xrotation
						JOINT joint_8
						{
							OFFSET 7.301758 -32.590759 -269.966064
							CHANNELS 3 Zrotation Yrotation Xrotation
							JOINT joint_9
							{
								OFFSET 35.581055 -8.517151 -242.326965
								CHANNELS 3 Zrotation Yrotation Xrotation
								End Site
								{
									OFFSET 0.000000 0.000000 0.000000
								}
							}
						}
					}
				}
				JOINT joint_10
				{
					OFFSET 7.819092 28.232056 74.432983
					CHANNELS 3 Zrotation Yrotation Xrotation
					JOINT joint_11
					{
						OFFSET -23.457031 135.063843 -22.406982
						CHANNELS 3 Zrotation Yrotation Xrotation
						JOINT joint_12
						{
							OFFSET 17.896973 48.138672 -267.131958
							CHANNELS 3 Zrotation Yrotation Xrotation
							JOINT joint_13
							{
								OFFSET 46.526367 17.567627 -239.975037
								CHANNELS 3 Zrotation Yrotation Xrotation
								End Site
								{
									OFFSET 0.000000 0.000000 0.000000
								}
							}
						}
					}
				}
			}
		}
	}
	JOINT joint_14
	{
		OFFSET 10.553467 -100.140320 -126.306030
		CHANNELS 3 Zrotation Yrotation Xrotation
		JOINT joint_15
		{
			OFFSET -52.094238 -9.565002 -436.052002
			CHANNELS 3 Zrotation Yrotation Xrotation
			JOINT joint_16
			{
				OFFSET -55.682617 -11.310120 -462.482971
				CHANNELS 3 Zrotation Yrotation Xrotation
				JOINT joint_17
				{
					OFFSET 179.119385 -5.942566 -84.087004
					CHANNELS 3 Zrotation Yrotation Xrotation
					End Site
					{
						OFFSET 0.000000 0.000000 0.000000
					}
				}
			}
		}
	}
	JOINT joint_18
	{
		OFFSET -22.235352 101.620483 -123.583984
		CHANNELS 3 Zrotation Yrotation Xrotation
		JOINT joint_19
		{
			OFFSET -38.118408 12.306396 -437.429016
			CHANNELS 3 Zrotation Yrotation Xrotation
			JOINT joint_20
			{
				OFFSET -51.789307 8.010498 -463.006004
				CHANNELS 3 Zrotation Yrotation Xrotation
				JOINT joint_21
				{
					OFFSET 170.088135 59.632324 -83.078003
					CHANNELS 3 Zrotation Yrotation Xrotation
					End Site
					{
						OFFSET 0.000000 0.000000 0.000000
					}
				}
			}
		}
	}
}
MOTION
Frames: 11
Frame Time: 0.016667
-3090.117676 912.443115 1125.276978 3.919803 3.293915 1.886535 -0.940837 5.066137 0.906295 -1.145337 -1.039109 -0.495798 -1.276223 0.946920 0.105993 -0.069272 -7.653011 -1.261442 0.000000 0.000000 0.000000 -8.159759 11.910762 -6.669658 -8.173213 8.214974 -6.957965 -175.448736 -59.625247 -160.648715 0.000000 0.000000 0.000000 -4.533860 0.856324 -0.946221 0.762653 1.545707 0.623300 0.842588 0.595542 3.925786 0.000000 0.000000 0.000000 -0.172390 -9.810330 -6.140827 -1.552203 25.772108 1.610581 -0.120370 -5.330072 -0.234449 0.000000 0.000000 0.000000 -1.244533 -0.933743 -1.508359 -0.931122 6.714908 -2.432720 -1.320970 -2.459932 0.229748 0.000000 0.000000 0.000000 
-3079.364990 909.656677 1127.108032 4.690803 3.200419 2.273586 -1.258790 5.427582 1.201341 -1.563171 -1.094502 -0.659783 -1.709719 1.008569 0.138873 0.189805 -7.289108 -1.765481 0.000000 0.000000 0.000000 -7.846804 12.255487 -7.061537 -8.127704 8.387489 -6.894169 -175.319342 -59.216387 -160.560794 0.000000 0.000000 0.000000 -3.569818 0.865106 -0.506593 0.761754 1.356453 0.714986 0.805688 0.292725 3.879847 0.000000 0.000000 0.000000 -0.241210 -12.205991 -6.615962 -1.584341 31.055855 1.770396 0.372295 -4.365647 0.015094 0.000000 0.000000 0.000000 -1.692464 -0.599595 -1.488269 -1.376997 7.027110 -2.565511 -1.692302 -1.528759 -0.267892 0.000000 0.000000 0.000000 
-3069.014404 905.940186 1129.000977 5.040436 3.165132 2.598040 -1.450475 5.707216 1.239876 -1.932934 -1.094936 -0.714234 -2.084723 1.033450 0.120235 0.325007 -6.854073 -1.975133 0.000000 0.000000 0.000000 -7.421984 12.184084 -7.199307 -8.133852 8.272456 -6.943906 -175.198225 -58.883762 -160.073961 0.000000 0.000000 0.000000 -2.286455 1.105907 0.287941 0.737613 1.170173 0.250329 0.896435 0.448537 4.239710 0.000000 0.000000 0.000000 -0.260461 -15.056895 -6.948273 -1.389743 36.667849 1.820880 1.263478 -3.220385 0.434677 0.000000 0.000000 0.000000 -1.990985 -0.223980 -1.473504 -1.706780 7.148230 -2.572337 -1.923906 -0.421668 -0.757501 0.000000 0.000000 0.000000 
-3059.051758 901.681091 1131.016968 5.226642 3.198558 2.898836 -1.573127 5.972697 1.075168 -2.274255 -1.116113 -0.669342 -2.435684 1.066479 0.074076 0.415146 -6.360546 -2.081553 0.000000 0.000000 0.000000 -6.922336 11.968947 -7.143738 -8.161088 8.066781 -6.994885 -175.067643 -58.519929 -159.547731 0.000000 0.000000 0.000000 -1.310881 1.425608 0.929539 0.727707 1.158779 -0.099984 0.960599 0.621545 4.450069 0.000000 0.000000 0.000000 -0.300445 -17.754661 -7.319775 -1.109023 41.201280 1.932640 2.292311 -2.218918 0.895748 0.000000 0.000000 0.000000 -2.244384 0.113925 -1.446207 -2.006502 7.153045 -2.531892 -2.117970 0.831111 -1.278116 0.000000 0.000000 0.000000 
-3049.515625 897.029602 1133.224976 5.342271 3.366176 3.115930 -1.663271 6.195194 0.839120 -2.551211 -1.182874 -0.575575 -2.729798 1.132515 0.001694 0.507084 -5.797128 -2.195693 0.000000 0.000000 0.000000 -6.324295 11.781139 -6.865462 -8.191350 7.895579 -6.956908 -174.921503 -58.009521 -159.205924 0.000000 0.000000 0.000000 -1.205633 1.771230 1.026255 0.755566 1.524570 0.195484 0.852404 0.447126 3.971350 0.000000 0.000000 0.000000 -0.202970 -20.002249 -7.846683 -0.744893 43.905237 2.457308 3.398037 -2.137842 1.350860 0.000000 0.000000 0.000000 -2.519666 0.324787 -1.289532 -2.302409 7.054093 -2.515832 -2.318072 2.202656 -1.842745 0.000000 0.000000 0.000000 
-3040.419922 891.837280 1135.607056 5.264688 3.682285 3.212098 -1.706921 6.327234 0.544168 -2.744000 -1.254828 -0.449466 -2.937355 1.216554 -0.102308 0.573707 -5.161125 -2.252742 0.000000 0.000000 0.000000 -5.606639 11.514082 -6.349969 -8.235496 7.683210 -6.870668 -174.767163 -57.390449 -158.913488 0.000000 0.000000 0.000000 -1.742210 2.209235 0.756216 0.810931 2.212479 0.879275 0.623489 0.040310 3.021211 0.000000 0.000000 0.000000 0.091059 -22.096692 -8.421489 -0.237599 45.426106 3.338713 4.635508 -2.960933 1.829637 0.000000 0.000000 0.000000 -2.779528 0.432340 -0.989976 -2.555082 6.820642 -2.497280 -2.480341 3.700824 -2.434559 0.000000 0.000000 0.000000 
-3031.497803 886.581238 1137.991943 5.054456 4.004768 3.222024 -1.745743 6.463159 0.318526 -2.883337 -1.313239 -0.356663 -3.085426 1.289892 -0.183483 0.635346 -4.520835 -2.301502 0.000000 0.000000 0.000000 -5.050761 11.205066 -5.886232 -8.232641 7.463978 -6.791631 -174.569531 -56.913388 -158.707129 0.000000 0.000000 0.000000 -2.356048 2.592712 0.455544 0.868758 2.813791 1.306776 0.493566 -0.132600 2.450473 0.000000 0.000000 0.000000 0.225908 -23.984103 -8.785188 0.103352 45.917302 3.745978 5.188710 -3.945210 2.028370 0.000000 0.000000 0.000000 -3.004998 0.547634 -0.624911 -2.763200 6.583449 -2.473266 -2.607219 5.187472 -3.007512 0.000000 0.000000 0.000000 
-3022.584473 881.627991 1140.348022 4.769394 4.226340 3.168663 -1.819985 6.699133 0.265186 -3.000465 -1.360077 -0.347208 -3.206340 1.334117 -0.193703 0.707644 -3.936061 -2.384906 0.000000 0.000000 0.000000 -4.888006 10.897113 -5.679838 -8.118159 7.280062 -6.755786 -174.276443 -56.758595 -158.633781 0.000000 0.000000 0.000000 -2.656350 2.787328 0.396178 0.893007 2.984640 0.918834 0.664679 0.486802 2.950605 0.000000 0.000000 0.000000 -0.152247 -25.564067 -8.685771 -0.070668 45.289458 2.929493 4.222055 -4.551802 1.619598 0.000000 0.000000 0.000000 -3.186393 0.747549 -0.238992 -2.928803 6.436930 -2.455931 -2.704961 6.580260 -3.536814 0.000000 0.000000 0.000000 
-3013.781494 876.790405 1142.744019 4.393522 4.396246 3.047777 -1.921344 7.005950 0.311629 -3.087067 -1.405253 -0.385353 -3.291792 1.362375 -0.156092 0.781404 -3.382037 -2.479846 0.000000 0.000000 0.000000 -5.007449 10.572622 -5.607259 -7.917539 7.114305 -6.753301 -173.904538 -56.829134 -158.676560 0.000000 0.000000 0.000000 -2.848697 2.835485 0.447516 0.909206 2.869881 -0.023085 1.071918 1.747343 4.188520 0.000000 0.000000 0.000000 -0.923839 -26.798585 -8.205782 -0.713398 43.330387 1.233816 2.087152 -4.833690 0.733650 0.000000 0.000000 0.000000 -3.334374 0.995863 0.184079 -3.055112 6.331782 -2.443727 -2.772992 7.939072 -4.044405 0.000000 0.000000 0.000000 
-3005.040039 871.888428 1144.803955 3.908826 4.532925 2.897437 -1.984968 7.322172 0.347027 -3.111796 -1.446102 -0.408346 -3.309492 1.387826 -0.120384 0.886521 -2.786003 -2.637797 0.000000 0.000000 0.000000 -5.206340 10.190815 -5.595334 -7.737861 6.931019 -6.774013 -173.592827 -57.024147 -158.786354 0.000000 0.000000 0.000000 -2.967480 2.838095 0.486199 0.958816 2.723530 -0.856642 1.471502 2.823227 5.380615 0.000000 0.000000 0.000000 -1.508583 -27.688987 -7.671486 -1.277000 40.478819 -0.341105 0.305026 -4.833588 -0.011382 0.000000 0.000000 0.000000 -3.427648 1.293175 0.577793 -3.135083 6.256162 -2.387061 -2.795973 9.211280 -4.504459 0.000000 0.000000 0.000000 
-2996.423096 866.948792 1146.380981 3.240256 4.663096 2.712584 -1.956044 7.593535 0.335969 -3.037256 -1.469124 -0.380736 -3.219420 1.418076 -0.122150 1.056739 -2.089722 -2.919788 0.000000 0.000000 0.000000 -5.365013 9.751106 -5.634200 -7.638838 6.721458 -6.783174 -173.420744 -57.328322 -159.016185 0.000000 0.000000 0.000000 -3.031688 2.873876 0.463601 1.047922 2.706527 -1.238022 1.678354 3.073924 6.095751 0.000000 0.000000 0.000000 -1.457865 -28.274967 -7.313822 -1.294922 37.008719 -1.203141 -0.239441 -4.581774 -0.239381 0.000000 0.000000 0.000000 -3.425587 1.638239 0.898443 -3.139914 6.182826 -2.230901 -2.737020 10.385659 -4.894874 0.000000 0.000000 0.000000 
